<svg xmlns="http://www.w3.org/2000/svg" width="1600" height="1000" viewBox="0 0 1600 1000">

    <defs>
      <linearGradient id="accent" x1="0" y1="0" x2="1" y2="1">
        <stop offset="0" stop-color="#9E7AFF"/>
        <stop offset="1" stop-color="#6D28D9"/>
      </linearGradient>
      <linearGradient id="accentSoft" x1="0" y1="0" x2="1" y2="0">
        <stop offset="0" stop-color="#6D28D9" stop-opacity=".72"/>
        <stop offset="1" stop-color="#9E7AFF" stop-opacity=".16"/>
      </linearGradient>
      <pattern id="dots" width="24" height="24" patternUnits="userSpaceOnUse">
        <circle cx="2" cy="2" r="1.5" fill="#9E7AFF" opacity=".18"/>
      </pattern>
      <filter id="shadow" x="-30%" y="-30%" width="160%" height="160%">
        <feDropShadow dx="0" dy="10" stdDeviation="18" flood-color="#000" flood-opacity=".42"/>
      </filter>
      <filter id="glow" x="-50%" y="-50%" width="200%" height="200%">
        <feGaussianBlur stdDeviation="24" result="b"/>
        <feMerge><feMergeNode in="b"/><feMergeNode in="SourceGraphic"/></feMerge>
      </filter>
      <marker id="arrow" viewBox="0 0 10 10" refX="9" refY="5" markerWidth="8" markerHeight="8" orient="auto-start-reverse">
        <path d="M 0 0 L 10 5 L 0 10 z" fill="#9E7AFF"/>
      </marker>
      <style>
        text { font-family: Onest, 'DejaVu Sans', Arial, sans-serif; }
      </style>
    </defs>
    
<rect width="1600" height="1000" fill="#0B0B0C"/>
<circle cx="1500" cy="40" r="250" fill="#6D28D9" opacity=".06"/>
<rect x="0" y="0" width="1600" height="1000" fill="url(#dots)" opacity=".45"/>
<text x="64" y="76" fill="#F6F4FA" font-size="32" font-weight="650">Староста: статистика без карточечной простыни</text>
<text x="64" y="112" fill="#C8C2D6" font-size="17">Metric lens сохраняет сравнение, раскрытие — контекст</text>
<rect x="80" y="160" width="330" height="690" rx="44" fill="#101014" stroke="#3D3846" stroke-width="2" opacity="1" filter="url(#shadow)"/>
<text x="104" y="206" text-anchor="start" fill="#F6F4FA" font-size="24" font-weight="650"><tspan x="104" dy="0">Статистика</tspan></text>
<rect x="332" y="178" width="54" height="38" rx="19.0" fill="#292531" stroke="#565061" stroke-width="1" opacity="1" /><text x="359.0" y="202.0" text-anchor="middle" fill="#F6F4FA" font-size="13" font-weight="600"><tspan x="359.0" dy="0">ИК</tspan></text>
<rect x="106" y="238" width="76" height="38" rx="19.0" fill="url(#accent)" stroke="none" stroke-width="1" opacity="1" /><text x="144.0" y="262.0" text-anchor="middle" fill="#F6F4FA" font-size="12" font-weight="600"><tspan x="144.0" dy="0">% +</tspan></text>
<rect x="190" y="238" width="104" height="38" rx="19.0" fill="#292531" stroke="#565061" stroke-width="1" opacity="1" /><text x="242.0" y="262.0" text-anchor="middle" fill="#F6F4FA" font-size="12" font-weight="600"><tspan x="242.0" dy="0">% + и у</tspan></text>
<rect x="302" y="238" width="52" height="38" rx="19.0" fill="#292531" stroke="#565061" stroke-width="1" opacity="1" /><text x="328.0" y="262.0" text-anchor="middle" fill="#F6F4FA" font-size="12" font-weight="600"><tspan x="328.0" dy="0">% н</tspan></text>
<rect x="362" y="238" width="34" height="38" rx="19.0" fill="#292531" stroke="#565061" stroke-width="1" opacity="1" /><text x="379.0" y="262.0" text-anchor="middle" fill="#F6F4FA" font-size="12" font-weight="600"><tspan x="379.0" dy="0">↕</tspan></text>
<text x="110" y="300" text-anchor="start" fill="#F6F4FA" font-size="13" font-weight="600"><tspan x="110" dy="0">Анна Волкова</tspan></text>
<text x="374" y="300" text-anchor="end" fill="#F6F4FA" font-size="13" font-weight="700"><tspan x="374" dy="0">92%</tspan></text>
<rect x="110" y="312" width="264" height="12" rx="6" fill="#17151B" stroke="none" stroke-width="1" opacity="1" />
<rect x="110" y="312" width="242.88000000000002" height="12" rx="6" fill="#34C79C" stroke="none" stroke-width="1" opacity="1" />
<text x="110" y="370" text-anchor="start" fill="#F6F4FA" font-size="13" font-weight="600"><tspan x="110" dy="0">Иван Петров</tspan></text>
<text x="374" y="370" text-anchor="end" fill="#F6F4FA" font-size="13" font-weight="700"><tspan x="374" dy="0">84%</tspan></text>
<rect x="110" y="382" width="264" height="12" rx="6" fill="#17151B" stroke="none" stroke-width="1" opacity="1" />
<rect x="110" y="382" width="221.76" height="12" rx="6" fill="#9E7AFF" stroke="none" stroke-width="1" opacity="1" />
<text x="110" y="440" text-anchor="start" fill="#F6F4FA" font-size="13" font-weight="600"><tspan x="110" dy="0">Мария Соколова</tspan></text>
<text x="374" y="440" text-anchor="end" fill="#F6F4FA" font-size="13" font-weight="700"><tspan x="374" dy="0">76%</tspan></text>
<rect x="110" y="452" width="264" height="12" rx="6" fill="#17151B" stroke="none" stroke-width="1" opacity="1" />
<rect x="110" y="452" width="200.64000000000001" height="12" rx="6" fill="#F5B443" stroke="none" stroke-width="1" opacity="1" />
<text x="110" y="510" text-anchor="start" fill="#F6F4FA" font-size="13" font-weight="600"><tspan x="110" dy="0">Алексей Смирнов</tspan></text>
<text x="374" y="510" text-anchor="end" fill="#F6F4FA" font-size="13" font-weight="700"><tspan x="374" dy="0">68%</tspan></text>
<rect x="110" y="522" width="264" height="12" rx="6" fill="#17151B" stroke="none" stroke-width="1" opacity="1" />
<rect x="110" y="522" width="179.52" height="12" rx="6" fill="#E24A4A" stroke="none" stroke-width="1" opacity="1" />
<text x="110" y="580" text-anchor="start" fill="#F6F4FA" font-size="13" font-weight="600"><tspan x="110" dy="0">Елена Орлова</tspan></text>
<text x="374" y="580" text-anchor="end" fill="#F6F4FA" font-size="13" font-weight="700"><tspan x="374" dy="0">64%</tspan></text>
<rect x="110" y="592" width="264" height="12" rx="6" fill="#17151B" stroke="none" stroke-width="1" opacity="1" />
<rect x="110" y="592" width="168.96" height="12" rx="6" fill="#E24A4A" stroke="none" stroke-width="1" opacity="1" />
<rect x="104" y="670" width="282" height="118" rx="22" fill="url(#accentSoft)" stroke="#9E7AFF" stroke-width="1" opacity="1" />
<text x="124" y="704" text-anchor="start" fill="#F6F4FA" font-size="15" font-weight="650"><tspan x="124" dy="0">Иван Петров · раскрыто</tspan></text>
<text x="124" y="734" text-anchor="start" fill="#C8C2D6" font-size="12" font-weight="450"><tspan x="124" dy="0">%+ 84 · %(+ и у) 92 · %у 8 · %н 8</tspan></text>
<rect x="100" y="806" width="290" height="62" rx="31" fill="#292531" stroke="#3D3846" stroke-width="1.2" opacity="0.94" filter="url(#shadow)"/>
<circle cx="129.0" cy="828" r="4" fill="#8A8299"/>
<text x="129.0" y="854" text-anchor="middle" fill="#8A8299" font-size="9.5" font-weight="550"><tspan x="129.0" dy="0">Сегодня</tspan></text>
<circle cx="187.0" cy="828" r="4" fill="#8A8299"/>
<text x="187.0" y="854" text-anchor="middle" fill="#8A8299" font-size="9.5" font-weight="550"><tspan x="187.0" dy="0">Учёт</tspan></text>
<circle cx="245.0" cy="828" r="4" fill="#8A8299"/>
<text x="245.0" y="854" text-anchor="middle" fill="#8A8299" font-size="9.5" font-weight="550"><tspan x="245.0" dy="0">Заявки</tspan></text>
<ellipse cx="303.0" cy="828" rx="25" ry="17" fill="url(#accent)"/>
<circle cx="303.0" cy="828" r="4" fill="#F6F4FA"/>
<text x="303.0" y="854" text-anchor="middle" fill="#F6F4FA" font-size="9.5" font-weight="550"><tspan x="303.0" dy="0">Ещё</tspan></text>
<circle cx="361.0" cy="828" r="4" fill="#8A8299"/>
<text x="361.0" y="854" text-anchor="middle" fill="#8A8299" font-size="9.5" font-weight="550"><tspan x="361.0" dy="0">Я</tspan></text>
<polyline points="430,510 560,510" fill="none" stroke="#9E7AFF" stroke-width="3" stroke-linecap="round" stroke-linejoin="round" marker-end="url(#arrow)"/>
<rect x="590" y="205" width="400" height="180" rx="22" fill="url(#accentSoft)" stroke="#9E7AFF" stroke-width="1.4" opacity="1" filter="url(#shadow)"/>
<text x="614" y="241" text-anchor="start" fill="#F6F4FA" font-size="19" font-weight="650"><tspan x="614" dy="0">Тап по строке</tspan></text>
<text x="614" y="273" text-anchor="start" fill="#C8C2D6" font-size="15" font-weight="420"><tspan x="614" dy="0">Короткое раскрытие сохраняет место:</tspan><tspan x="614" dy="21">4 метрики · абсолютные числа · действие</tspan><tspan x="614" dy="21">“Подробнее”</tspan></text>
<rect x="590" y="435" width="400" height="180" rx="22" fill="#1C1922" stroke="#565061" stroke-width="1.4" opacity="1" />
<text x="614" y="471" text-anchor="start" fill="#F6F4FA" font-size="19" font-weight="650"><tspan x="614" dy="0">Отдельный detail</tspan></text>
<text x="614" y="503" text-anchor="start" fill="#C8C2D6" font-size="15" font-weight="420"><tspan x="614" dy="0">Предметы и типы занятий</tspan><tspan x="614" dy="21">динамика · выгрузка</tspan><tspan x="614" dy="21">URL/deep link и Back</tspan></text>
<rect x="590" y="665" width="400" height="180" rx="22" fill="#1C1922" stroke="#565061" stroke-width="1.4" opacity="1" />
<text x="614" y="701" text-anchor="start" fill="#F6F4FA" font-size="19" font-weight="650"><tspan x="614" dy="0">Распределение</tspan></text>
<text x="614" y="733" text-anchor="start" fill="#C8C2D6" font-size="15" font-weight="420"><tspan x="614" dy="0">Стек + / у / н по группе</tspan><tspan x="614" dy="21">или гистограмма выбранной метрики</tspan><tspan x="614" dy="21">без ранжирования “красной зоны”</tspan></text>
<polyline points="990,295 1080,295 1080,520 1050,520" fill="none" stroke="#9E7AFF" stroke-width="3" stroke-linecap="round" stroke-linejoin="round" marker-end="url(#arrow)"/>
<rect x="1050" y="205" width="490" height="640" rx="28" fill="#1C1922" stroke="#565061" stroke-width="1" opacity="1" />
<text x="1080" y="250" text-anchor="start" fill="#F6F4FA" font-size="21" font-weight="700"><tspan x="1080" dy="0">Альтернатива: cohort strip</tspan></text>
<text x="1080" y="282" text-anchor="start" fill="#C8C2D6" font-size="14" font-weight="450"><tspan x="1080" dy="0">Выбирать, если старосты реально сравнивают всю</tspan><tspan x="1080" dy="20">группу.</tspan></text>
<text x="1080" y="350" text-anchor="start" fill="#F6F4FA" font-size="13" font-weight="600"><tspan x="1080" dy="0">Анна</tspan></text>
<rect x="1195" y="336" width="292" height="30" rx="15" fill="#17151B" stroke="none" stroke-width="1" opacity="1" />
<rect x="1195" y="336" width="268.64" height="30" rx="15" fill="#34C79C" stroke="none" stroke-width="1" opacity="1" />
<text x="1500" y="355" text-anchor="end" fill="#F6F4FA" font-size="13" font-weight="700"><tspan x="1500" dy="0">92</tspan></text>
<text x="1080" y="426" text-anchor="start" fill="#F6F4FA" font-size="13" font-weight="600"><tspan x="1080" dy="0">Иван</tspan></text>
<rect x="1195" y="412" width="292" height="30" rx="15" fill="#17151B" stroke="none" stroke-width="1" opacity="1" />
<rect x="1195" y="412" width="245.28" height="30" rx="15" fill="#9E7AFF" stroke="none" stroke-width="1" opacity="1" />
<text x="1500" y="431" text-anchor="end" fill="#F6F4FA" font-size="13" font-weight="700"><tspan x="1500" dy="0">84</tspan></text>
<text x="1080" y="502" text-anchor="start" fill="#F6F4FA" font-size="13" font-weight="600"><tspan x="1080" dy="0">Мария</tspan></text>
<rect x="1195" y="488" width="292" height="30" rx="15" fill="#17151B" stroke="none" stroke-width="1" opacity="1" />
<rect x="1195" y="488" width="221.92000000000002" height="30" rx="15" fill="#F5B443" stroke="none" stroke-width="1" opacity="1" />
<text x="1500" y="507" text-anchor="end" fill="#F6F4FA" font-size="13" font-weight="700"><tspan x="1500" dy="0">76</tspan></text>
<text x="1080" y="578" text-anchor="start" fill="#F6F4FA" font-size="13" font-weight="600"><tspan x="1080" dy="0">Алексей</tspan></text>
<rect x="1195" y="564" width="292" height="30" rx="15" fill="#17151B" stroke="none" stroke-width="1" opacity="1" />
<rect x="1195" y="564" width="198.56" height="30" rx="15" fill="#E24A4A" stroke="none" stroke-width="1" opacity="1" />
<text x="1500" y="583" text-anchor="end" fill="#F6F4FA" font-size="13" font-weight="700"><tspan x="1500" dy="0">68</tspan></text>
<text x="1080" y="654" text-anchor="start" fill="#F6F4FA" font-size="13" font-weight="600"><tspan x="1080" dy="0">Елена</tspan></text>
<rect x="1195" y="640" width="292" height="30" rx="15" fill="#17151B" stroke="none" stroke-width="1" opacity="1" />
<rect x="1195" y="640" width="186.88" height="30" rx="15" fill="#E24A4A" stroke="none" stroke-width="1" opacity="1" />
<text x="1500" y="659" text-anchor="end" fill="#F6F4FA" font-size="13" font-weight="700"><tspan x="1500" dy="0">64</tspan></text>
<text x="1080" y="770" text-anchor="start" fill="#C8C2D6" font-size="14" font-weight="450"><tspan x="1080" dy="0">Плюс: плотное сравнение.</tspan><tspan x="1080" dy="21">Минус: ФИО и абсолюты требуют detail;</tspan><tspan x="1080" dy="21">цвет не заменяет число.</tspan></text>
<text x="800" y="930" text-anchor="middle" fill="#C8C2D6" font-size="16" font-weight="500"><tspan x="800" dy="0">Не показывать десять больших карточек: они превращают 113 в вертикальный аналог исходной 6810 px простыни.</tspan></text>
</svg>