<svg preserveAspectRatio="none" overflow="visible" style="display: block;" width="24" height="24" viewBox="0 0 24 24" fill="none" xmlns="http://www.w3.org/2000/svg">
<g id="icon/role-switch">
<path id="Vector" d="M8 10C9.65685 10 11 8.65685 11 7C11 5.34315 9.65685 4 8 4C6.34315 4 5 5.34315 5 7C5 8.65685 6.34315 10 8 10Z" stroke="#C8C2D6" stroke-linecap="round" stroke-linejoin="round"/>
<path id="Vector_2" d="M3.5 18C4.3 15 6.1 13.5 9 13.5C10.3 13.5 11.4 13.8 12.3 14.5" stroke="#C8C2D6" stroke-linecap="round" stroke-linejoin="round"/>
<path id="Vector_3" d="M15 7H20M18 9L20 7L18 5M20 15H15M17 17L15 15L17 13" stroke="#C8C2D6" stroke-linecap="round" stroke-linejoin="round"/>
</g>
</svg>
